<?xml version="1.0" encoding="UTF-8"?>
<svg width="17px" height="17px" viewBox="0 0 17 17" version="1.1" xmlns="http://www.w3.org/2000/svg" xmlns:xlink="http://www.w3.org/1999/xlink">
    <title>ED5D037E-E1DB-44A9-B4DF-A99E3B5115F3</title>
    <g id="5.0---Interface" stroke="none" stroke-width="1" fill="none" fill-rule="evenodd">
        <g id="Home-Page-1.0" transform="translate(-949.000000, -2400.000000)" fill="#FFFFFF" fill-rule="nonzero">
            <g id="Group-2" transform="translate(949.000000, 2400.000000)">
                <g id="plus">
                    <path d="M16.7258065,8.22580645 L8.77419355,8.22580645 L8.77419355,0.274193548 C8.77419355,0.122770161 8.65142339,0 8.5,0 C8.34857661,0 8.22580645,0.122770161 8.22580645,0.274193548 L8.22580645,8.22580645 L0.274193548,8.22580645 C0.122770161,8.22580645 0,8.34857661 0,8.5 C0,8.65142339 0.122770161,8.77419355 0.274193548,8.77419355 L8.22580645,8.77419355 L8.22580645,16.7258065 C8.22580645,16.8772298 8.34857661,17 8.5,17 C8.65142339,17 8.77419355,16.8772298 8.77419355,16.7258065 L8.77419355,8.77419355 L16.7258065,8.77419355 C16.8772298,8.77419355 17,8.65142339 17,8.5 C17,8.34857661 16.8772298,8.22580645 16.7258065,8.22580645 Z" id="Path"></path>
                </g>
                <g id="plus">
                    <path d="M16.7258065,8.22580645 L8.77419355,8.22580645 L8.77419355,0.274193548 C8.77419355,0.122770161 8.65142339,0 8.5,0 C8.34857661,0 8.22580645,0.122770161 8.22580645,0.274193548 L8.22580645,8.22580645 L0.274193548,8.22580645 C0.122770161,8.22580645 0,8.34857661 0,8.5 C0,8.65142339 0.122770161,8.77419355 0.274193548,8.77419355 L8.22580645,8.77419355 L8.22580645,16.7258065 C8.22580645,16.8772298 8.34857661,17 8.5,17 C8.65142339,17 8.77419355,16.8772298 8.77419355,16.7258065 L8.77419355,8.77419355 L16.7258065,8.77419355 C16.8772298,8.77419355 17,8.65142339 17,8.5 C17,8.34857661 16.8772298,8.22580645 16.7258065,8.22580645 Z" id="Path"></path>
                </g>
            </g>
        </g>
    </g>
</svg>