<svg width="65" height="66" viewBox="0 0 65 66" fill="none" xmlns="http://www.w3.org/2000/svg">
<path fill-rule="evenodd" clip-rule="evenodd" d="M0.0304104 27.5093C4.57364 30.1618 9.4405 31.7604 14.5826 32.5709C14.6023 32.5263 14.6219 32.4815 14.6417 32.4367C14.4451 32.3563 14.2504 32.2711 14.0519 32.1957C10.8519 30.9801 7.95379 29.2963 5.57002 26.8234C-2.01371 18.9556 0.430611 6.99428 8.38621 1.86122C9.68659 1.02218 11.085 0.39536 12.7143 0C12.5249 0.313641 12.391 0.534944 12.2575 0.756401C11.2513 2.42541 10.4775 4.17998 10.2641 6.13477C9.96009 8.91999 10.9429 11.2966 12.6664 13.4287C14.5309 15.735 16.86 17.5288 19.3076 19.1676C22.4729 21.2871 25.7035 23.3108 28.8732 25.4238C31.8852 27.4316 34.8024 29.5777 37.0894 32.4058C38.0474 33.5908 38.7756 34.9576 39.6068 36.2428C39.6604 36.3254 39.7007 36.4165 39.8036 36.4762C39.0967 33.5172 37.8356 30.8128 35.9244 28.3112C41.5965 29.0938 47.2248 28.5415 52.8749 28.9167C52.9467 27.91 52.9743 26.9334 53.6465 26.0713C53.6973 26.2152 53.7474 26.3044 53.7585 26.3982C53.904 27.6141 54.5934 28.4365 55.7252 28.8326C56.733 29.1854 57.7924 29.391 58.8163 29.7025C59.526 29.9184 60.2386 30.1531 60.9054 30.4706C61.8384 30.9149 62.47 31.6713 62.9181 32.5982C63.1169 33.0094 63.4243 33.37 63.6863 33.7509C64.0731 34.3126 64.5499 34.8326 64.8322 35.4413C65.2654 36.3749 64.8343 37.1646 63.8315 37.5135C62.8877 35.9824 61.7055 35.5244 59.744 35.9128C57.8406 36.2901 56.1975 37.192 54.7025 38.3744C51.5484 40.8686 49.4573 44.1252 47.8848 47.7473C47.8059 47.929 47.7248 48.1097 47.642 48.2896C47.6381 48.2981 47.6076 48.2945 47.5682 48.2988C47.4901 47.2477 47.4536 46.1918 47.3213 45.1481C47.1903 44.1147 47.0088 43.0824 46.7638 42.07C46.5169 41.0496 46.1645 40.0543 45.8583 39.048C45.7996 39.0607 45.7409 39.0735 45.6821 39.0863C45.7422 39.6229 45.8156 40.1582 45.8603 40.6962C46.506 48.4657 45.2696 55.8111 40.76 62.3877C39.9169 63.6171 38.9054 64.7337 37.8937 66C37.7881 65.7288 37.7364 65.6228 37.7053 65.5115C36.3076 60.5219 33.4268 56.4938 29.4957 53.1512C25.4571 49.7173 20.8001 47.3367 15.8965 45.3807C15.1432 45.0803 14.3835 44.796 13.6422 44.4451C18.8556 44.5525 23.881 45.5519 28.6953 47.5737C28.7172 47.5355 28.7393 47.4973 28.7614 47.4592C28.3797 47.1143 28.0136 46.7502 27.6134 46.4276C25.3495 44.6029 22.7424 43.3572 20.1321 42.1176C16.7878 40.5294 13.421 38.9846 10.1092 37.3325C7.81261 36.1869 5.67992 34.7657 3.78367 33.0269C2.25868 31.6283 0.994877 30.039 0.17673 28.1304C0.113066 27.9817 0.0564056 27.83 0.00270303 27.6776C-0.00725918 27.6496 0.0121983 27.6116 0.0304104 27.5093Z" fill="white"/>
</svg>
