<?xml version="1.0" encoding="UTF-8"?>
<svg width="32px" height="32px" viewBox="0 0 32 32" version="1.1" xmlns="http://www.w3.org/2000/svg" xmlns:xlink="http://www.w3.org/1999/xlink">
    <title>C5B09223-DEB2-4739-BB01-1CA5C4263A14</title>
    <g id="5.0---Interface" stroke="none" stroke-width="1" fill="none" fill-rule="evenodd">
        <g id="Home-Page-1.0" transform="translate(-170.000000, -1997.000000)" fill="#2F2D2D" fill-rule="nonzero">
            <path d="M201.483871,2012.48387 L186.516129,2012.48387 L186.516129,1997.51613 C186.516129,1997.2311 186.285032,1997 186,1997 C185.714968,1997 185.483871,1997.2311 185.483871,1997.51613 L185.483871,2012.48387 L170.516129,2012.48387 C170.231097,2012.48387 170,2012.71497 170,2013 C170,2013.28503 170.231097,2013.51613 170.516129,2013.51613 L185.483871,2013.51613 L185.483871,2028.48387 C185.483871,2028.7689 185.714968,2029 186,2029 C186.285032,2029 186.516129,2028.7689 186.516129,2028.48387 L186.516129,2013.51613 L201.483871,2013.51613 C201.768903,2013.51613 202,2013.28503 202,2013 C202,2012.71497 201.768903,2012.48387 201.483871,2012.48387 Z" id="Path"></path>
        </g>
    </g>
</svg>