<?xml version="1.0" encoding="UTF-8"?>
<svg width="32px" height="32px" viewBox="0 0 32 32" version="1.1" xmlns="http://www.w3.org/2000/svg" xmlns:xlink="http://www.w3.org/1999/xlink">
    <title>053D5DE3-1022-4C91-8977-2CC27380CC31</title>
    <g id="5.0---Interface" stroke="none" stroke-width="1" fill="none" fill-rule="evenodd">
        <g id="Home-Page-1.0-B" transform="translate(-1211.000000, -1964.000000)" fill="#2F2D2D" fill-rule="nonzero">
            <path d="M1242.48387,1979.48387 L1227.51613,1979.48387 L1227.51613,1964.51613 C1227.51613,1964.2311 1227.28503,1964 1227,1964 C1226.71497,1964 1226.48387,1964.2311 1226.48387,1964.51613 L1226.48387,1979.48387 L1211.51613,1979.48387 C1211.2311,1979.48387 1211,1979.71497 1211,1980 C1211,1980.28503 1211.2311,1980.51613 1211.51613,1980.51613 L1226.48387,1980.51613 L1226.48387,1995.48387 C1226.48387,1995.7689 1226.71497,1996 1227,1996 C1227.28503,1996 1227.51613,1995.7689 1227.51613,1995.48387 L1227.51613,1980.51613 L1242.48387,1980.51613 C1242.7689,1980.51613 1243,1980.28503 1243,1980 C1243,1979.71497 1242.7689,1979.48387 1242.48387,1979.48387 Z" id="Path"></path>
        </g>
    </g>
</svg>