<?xml version="1.0" encoding="UTF-8"?>
<svg width="32px" height="32px" viewBox="0 0 32 32" version="1.1" xmlns="http://www.w3.org/2000/svg" xmlns:xlink="http://www.w3.org/1999/xlink">
    <title>B1A0DA9B-B483-407B-91FB-EDF8CA217920</title>
    <g id="5.0---Interface" stroke="none" stroke-width="1" fill="none" fill-rule="evenodd">
        <g id="Home-Page-1.0" transform="translate(-336.000000, -469.000000)" fill="#FFFFFF" fill-rule="nonzero">
            <g id="plus" transform="translate(336.000000, 469.000000)">
                <path d="M31.483871,15.483871 L16.516129,15.483871 L16.516129,0.516129032 C16.516129,0.231096774 16.2850323,0 16,0 C15.7149677,0 15.483871,0.231096774 15.483871,0.516129032 L15.483871,15.483871 L0.516129032,15.483871 C0.231096774,15.483871 0,15.7149677 0,16 C0,16.2850323 0.231096774,16.516129 0.516129032,16.516129 L15.483871,16.516129 L15.483871,31.483871 C15.483871,31.7689032 15.7149677,32 16,32 C16.2850323,32 16.516129,31.7689032 16.516129,31.483871 L16.516129,16.516129 L31.483871,16.516129 C31.7689032,16.516129 32,16.2850323 32,16 C32,15.7149677 31.7689032,15.483871 31.483871,15.483871 Z" id="Path"></path>
                <path d="M31.483871,15.483871 L16.516129,15.483871 L16.516129,0.516129032 C16.516129,0.231096774 16.2850323,0 16,0 C15.7149677,0 15.483871,0.231096774 15.483871,0.516129032 L15.483871,15.483871 L0.516129032,15.483871 C0.231096774,15.483871 0,15.7149677 0,16 C0,16.2850323 0.231096774,16.516129 0.516129032,16.516129 L15.483871,16.516129 L15.483871,31.483871 C15.483871,31.7689032 15.7149677,32 16,32 C16.2850323,32 16.516129,31.7689032 16.516129,31.483871 L16.516129,16.516129 L31.483871,16.516129 C31.7689032,16.516129 32,16.2850323 32,16 C32,15.7149677 31.7689032,15.483871 31.483871,15.483871 Z" id="Path"></path>
            </g>
        </g>
    </g>
</svg>