<?xml version="1.0" standalone="no"?>
<!DOCTYPE svg PUBLIC "-//W3C//DTD SVG 20010904//EN"
 "http://www.w3.org/TR/2001/REC-SVG-20010904/DTD/svg10.dtd">
<svg version="1.0" xmlns="http://www.w3.org/2000/svg"
 width="260.000000pt" height="260.000000pt" viewBox="0 0 260.000000 260.000000"
 preserveAspectRatio="xMidYMid meet">
<metadata>
Created by potrace 1.14, written by Peter Selinger 2001-2017
</metadata>
<g transform="translate(0.000000,260.000000) scale(0.100000,-0.100000)"
fill="#000000" stroke="none">
<path d="M310 2586 c-148 -40 -259 -151 -299 -301 -15 -54 -15 -1901 0 -1965
33 -143 139 -257 282 -302 55 -17 117 -18 1000 -18 598 0 958 4 986 11 106 24
210 100 264 192 58 99 57 66 57 1081 0 595 -4 952 -10 987 -28 148 -139 268
-289 313 -47 14 -163 16 -1000 15 -716 0 -957 -3 -991 -13z"/>
</g>
</svg>
